<svg width="11" height="21" viewBox="0 0 11 21" fill="none" xmlns="http://www.w3.org/2000/svg">
<path d="M10.8545 20.1529L1.17043 10.5003L1.23813 10.4329L10.8591 0.844757C10.9503 0.749293 11.0004 0.62223 10.999 0.490539C10.9976 0.358849 10.9446 0.2329 10.8514 0.139428C10.7572 0.048371 10.6305 -0.00175268 10.4991 4.68317e-05C10.433 -0.000812138 10.3674 0.0113286 10.306 0.0357724C10.2446 0.0602161 10.1887 0.0964823 10.1414 0.142491L0.1381 10.1136C0.089974 10.1629 0.0529964 10.2219 0.0296463 10.2866C0.00629608 10.3514 -0.00288756 10.4203 0.00271161 10.4889C-0.00489683 10.5616 0.00355283 10.6352 0.0274696 10.7044C0.0513864 10.7735 0.0901933 10.8367 0.141177 10.8894L10.1522 20.8689C10.3399 21.045 10.6591 21.0473 10.8607 20.8536C10.9512 20.7588 11.0011 20.6327 11 20.502C10.9988 20.3712 10.9467 20.246 10.8545 20.1529Z" fill="white"/>
</svg>
