<svg width="23" height="23" viewBox="0 0 23 23" fill="none" xmlns="http://www.w3.org/2000/svg">
<path d="M20.7109 21.9537L0.713555 2.30295C0.524139 2.11682 0.416422 1.86306 0.414101 1.59751C0.411779 1.33196 0.515043 1.07636 0.701176 0.886942C0.887308 0.697526 1.14106 0.58981 1.40661 0.587488C1.67217 0.585167 1.92777 0.68843 2.11718 0.874563L22.1146 20.5253C22.304 20.7115 22.4117 20.9652 22.414 21.2308C22.4163 21.4963 22.3131 21.7519 22.1269 21.9414C21.9408 22.1308 21.6871 22.2385 21.4215 22.2408C21.156 22.2431 20.9004 22.1399 20.7109 21.9537Z" fill="#3C3C3C"/>
<path d="M21.9539 2.1173L2.30307 22.1147C2.11694 22.3041 1.86318 22.4118 1.59763 22.4141C1.33208 22.4165 1.07648 22.3132 0.887062 22.1271C0.697646 21.9409 0.58993 21.6872 0.587608 21.4216C0.585287 21.1561 0.688551 20.9005 0.874683 20.7111L20.5255 0.713677C20.7116 0.524262 20.9654 0.416544 21.2309 0.414223C21.4965 0.411901 21.7521 0.515166 21.9415 0.701298C22.1309 0.887431 22.2386 1.14118 22.2409 1.40674C22.2432 1.67229 22.14 1.92789 21.9539 2.1173Z" fill="#3C3C3C"/>
</svg>
