<svg width="30" height="20" viewBox="0 0 30 20" fill="none" xmlns="http://www.w3.org/2000/svg">
<path d="M29 2H1C0.734784 2 0.48043 1.89464 0.292893 1.70711C0.105357 1.51957 0 1.26522 0 1C0 0.734784 0.105357 0.48043 0.292893 0.292893C0.48043 0.105357 0.734784 0 1 0H29C29.2652 0 29.5196 0.105357 29.7071 0.292893C29.8946 0.48043 30 0.734784 30 1C30 1.26522 29.8946 1.51957 29.7071 1.70711C29.5196 1.89464 29.2652 2 29 2Z" fill="white"/>
<path d="M29 11H1C0.734784 11 0.48043 10.8946 0.292893 10.7071C0.105357 10.5196 0 10.2652 0 10C0 9.73478 0.105357 9.48043 0.292893 9.29289C0.48043 9.10536 0.734784 9 1 9H29C29.2652 9 29.5196 9.10536 29.7071 9.29289C29.8946 9.48043 30 9.73478 30 10C30 10.2652 29.8946 10.5196 29.7071 10.7071C29.5196 10.8946 29.2652 11 29 11Z" fill="white"/>
<path d="M23.2 20H0.8C0.587827 20 0.384344 19.8946 0.234315 19.7071C0.0842854 19.5196 0 19.2652 0 19C0 18.7348 0.0842854 18.4804 0.234315 18.2929C0.384344 18.1054 0.587827 18 0.8 18H23.2C23.4122 18 23.6157 18.1054 23.7657 18.2929C23.9157 18.4804 24 18.7348 24 19C24 19.2652 23.9157 19.5196 23.7657 19.7071C23.6157 19.8946 23.4122 20 23.2 20Z" fill="white"/>
</svg>
